<svg version="1.2" baseProfile="tiny-ps" xmlns="http://www.w3.org/2000/svg" viewBox="0 0 1770 1770" width="1770" height="1770">
	<title>Coca-Cola_bottle_cap-svg</title>
	<style>
		tspan { white-space:pre }
		.shp0 { fill: #e61d2a } 
		.shp1 { fill: #ffffff } 
	</style>
	<g id="Capa_1">
	</g>
	<g id="Capa_2">
		<path id="Layer" class="shp0" d="M885 1770C395.59 1770 0 1374.4 0 885C0 395.59 395.59 0 885 0C1374.4 0 1770 395.59 1770 885C1770 1374.4 1374.4 1770 885 1770Z" />
	</g>
	<g id="Capa_3">
		<g id="Layer">
			<g id="g3">
				<path id="path5" class="shp1" d="M713.9 1046.92C658.83 1011.52 584.76 1005.62 464.79 1038.4C336.96 1068.56 294.34 1087.57 237.97 1048.89C216.33 1029.88 208.47 999.07 214.37 955.14C227.48 883.03 263.53 814.2 327.78 737.5C363.83 697.51 396.61 663.42 440.53 649.66C473.97 641.13 470.69 667.36 466.76 671.29C462.17 671.29 454.96 671.94 449.71 675.88C445.12 679.16 432.67 690.96 432.01 706.03C431.36 729.63 454.96 724.39 465.44 711.93C476.59 697.51 492.98 669.98 480.52 644.41C475.28 635.23 465.44 628.68 453.64 626.71C413.66 624.09 376.29 643.76 341.54 664.73C266.16 717.18 205.84 789.94 171.76 869.27C152.09 917.12 134.39 985.96 161.27 1041.68C182.24 1080.36 224.86 1101.33 275.99 1096.74C312.04 1092.81 355.31 1081.67 384.16 1074.46C413.66 1067.24 562.47 1016.11 611.63 1105.27C611.63 1105.27 628.02 1073.8 668.67 1073.14C702.1 1069.87 750.61 1082.98 786.01 1108.54C774.87 1090.84 742.09 1064.62 713.9 1046.92L713.9 1046.92Z" />
				<path id="path7" fill-rule="evenodd" class="shp1" d="M479.87 746.68C508.71 767.66 481.18 823.38 479.87 832.56C490.36 834.52 521.82 811.58 540.83 791.26C555.91 774.87 580.82 753.23 597.21 747.33C609.01 741.43 627.37 739.47 639.82 746.68C648.34 751.92 653.59 761.1 654.24 771.59C655.56 800.43 622.12 846.98 605.73 823.38C602.46 812.89 606.39 801.74 616.88 790.6C622.12 784.7 628.68 782.73 637.2 782.73C640.48 777.49 639.82 770.28 634.58 767C628.68 763.07 618.19 765.69 607.7 773.56C571.64 801.74 539.52 849.6 521.17 902.04C517.89 911.88 515.92 926.3 521.82 936.79C538.21 961.04 574.92 926.96 574.92 926.96C599.83 904.67 624.09 873.86 643.1 846.32C692.27 775.52 757.82 713.9 786.67 753.89C786.67 754.54 787.98 756.51 787.98 756.51L793.22 747.99L839.77 747.99L740.78 919.09C738.81 923.68 737.5 929.58 740.78 932.2C743.4 934.17 747.99 931.54 747.99 931.54C773.56 919.09 812.89 862.06 812.89 862.06L828.62 862.06C803.06 898.77 772.24 941.38 733.57 968.91C723.08 976.12 708.66 983.99 694.89 978.74C679.81 969.57 683.09 957.77 683.74 944C683.74 944 647.03 988.58 616.22 979.4C605.73 976.12 590 967.6 601.8 925.64C601.8 925.64 602.46 921.71 603.11 919.09C600.49 921.71 595.24 926.3 595.24 926.3C566.4 954.49 533.62 985.96 492.32 979.4C461.51 969.57 462.82 938.1 461.51 929.58C458.23 901.39 492.32 844.36 492.32 843.7C483.14 846.32 475.28 848.29 468.72 849.6C468.07 850.26 457.58 867.96 457.58 867.96C446.43 886.97 434.63 907.29 418.9 923.68L416.28 926.96C393.33 953.18 340.23 1003 311.39 968.91C291.72 940.07 309.42 877.13 350.72 823.38C395.96 763.72 451.68 728.32 479.87 746.68ZM704.72 828.62C668.01 877.79 656.21 913.19 655.56 924.99C654.9 928.92 656.21 932.2 659.49 934.17C662.11 935.48 665.39 935.48 668.01 934.82C684.4 925.64 694.23 912.53 704.07 897.46L711.28 886.97C733.57 849.6 757.17 808.3 777.49 772.24C776.83 766.34 768.31 757.82 746.68 776.83C740.12 782.73 713.9 816.17 704.72 828.62ZM451.02 850.91C451.68 849.6 451.68 848.94 451.02 848.94C451.02 848.29 451.02 848.29 451.02 848.29C437.26 844.36 418.9 835.83 409.07 816.82C409.07 816.17 409.07 816.17 409.07 816.17L408.41 816.17C392.68 838.46 376.29 862.71 366.46 890.24L365.14 894.18C361.87 905.32 357.28 919.74 365.8 929.58C369.73 934.82 377.6 933.51 383.5 931.54C402.51 921.71 417.59 901.39 430.04 885L450.37 852.22L451.02 850.91ZM470.69 811.58C473.31 802.4 475.93 792.57 475.93 784.04C475.93 777.49 474.62 771.59 470.69 767C464.13 762.41 453.64 765.03 446.43 769.62C439.22 774.87 422.83 789.94 426.77 809.61C429.39 819.44 439.22 827.97 451.68 831.9L455.61 832.56C458.23 833.21 460.2 833.87 461.51 832.56L470.69 811.58Z" />
				<path id="path9" fill-rule="evenodd" class="shp1" d="M1058.72 874.51C1069.21 894.83 1062.66 922.37 1057.41 940.72C1033.81 1005.62 985.96 1062 932.86 1088.22C908.6 1098.06 873.86 1103.96 847.63 1076.42C816.82 1044.3 820.76 989.89 833.21 953.18C849.6 898.11 880.41 842.39 929.58 778.14C997.1 696.2 1060.03 649 1127.56 629.33C1145.91 624.74 1171.48 622.78 1187.21 639.82C1187.21 639.82 1194.42 637.86 1202.94 634.58C1223.92 627.37 1265.22 617.53 1315.7 645.07C1337.99 657.52 1360.28 669.98 1381.91 683.09L1395.02 691.61C1385.84 700.79 1369.46 717.83 1359.62 729.63C1339.3 720.46 1278.33 673.91 1250.14 664.73C1250.14 664.73 1213.43 648.34 1195.73 657.52C1196.39 660.14 1196.39 664.73 1196.39 668.01C1196.39 694.89 1185.9 718.49 1174.76 742.74C1155.09 774.87 1130.83 809.61 1093.47 818.13C1085.6 818.79 1075.77 818.13 1069.87 807.64C1059.38 787.98 1069.87 765.69 1077.73 749.3C1108.54 684.4 1172.13 649.66 1172.13 649.66C1160.99 645.72 1147.88 647.03 1134.11 654.24C1066.59 687.68 1016.11 750.61 970.22 812.23C925.64 878.44 894.83 936.13 887.62 1004.31C885.66 1028.57 893.52 1046.92 908.6 1056.1C932.2 1071.18 959.73 1052.17 978.09 1036.43C999.07 1017.42 1019.39 990.54 1033.16 963.67C1051.51 926.96 1056.1 888.93 1042.33 884.34C1026.6 880.41 1012.83 896.8 1005.62 907.29C987.27 932.2 983.33 960.39 983.33 960.39C956.46 972.19 932.86 993.82 921.71 1006.93C925.64 977.43 930.89 959.08 940.72 936.79C959.73 892.87 995.79 862.71 1032.5 859.43C1043.64 858.78 1054.13 864.68 1058.72 874.51ZM1181.31 671.29C1181.31 668.01 1181.31 666.04 1180.66 662.77C1141.98 682.43 1105.92 721.11 1084.94 767C1070.52 801.09 1086.91 805.02 1096.09 803.06C1111.82 799.12 1174.1 751.92 1181.31 671.29Z" />
				<path id="path11" class="shp1" d="M1553.01 681.12C1519.58 700.13 1484.18 712.59 1442.22 708.66C1430.42 721.77 1419.28 735.53 1408.79 749.3C1468.44 764.38 1531.38 730.94 1566.12 698.82C1603.49 666.7 1622.5 626.06 1622.5 626.06C1622.5 626.06 1594.31 658.18 1553.01 681.12L1553.01 681.12Z" />
				<path id="polygon13" class="shp1" d="M915.81 748.64L871.89 748.64L846.98 789.29L890.9 789.29L915.81 748.64Z" />
				<path id="path15" fill-rule="evenodd" class="shp1" d="M1441.57 1050.86C1469.1 1034.47 1490.73 1001.03 1507.78 976.12L1524.17 976.12C1511.71 996.44 1465.82 1066.59 1427.14 1087.57C1416 1093.47 1406.82 1100.68 1394.37 1098.06C1376.01 1095.43 1375.36 1073.14 1378.63 1060.03C1368.14 1070.52 1345.86 1092.16 1326.19 1097.4C1308.49 1101.33 1285.54 1094.12 1292.1 1050.2C1262.6 1086.91 1226.54 1114.44 1204.91 1087.57C1189.83 1068.56 1197.04 1036.43 1213.43 989.23C1213.43 989.23 1218.68 972.84 1219.33 970.88C1218.68 970.88 1218.68 970.88 1218.68 970.88C1208.19 973.5 1194.42 974.16 1193.11 974.16C1167.54 1018.73 1135.42 1067.24 1089.53 1091.5C1082.32 1095.43 1065.28 1102.64 1051.51 1095.43C1038.4 1088.22 1033.16 1073.14 1035.78 1049.54C1039.71 1019.39 1052.82 993.17 1065.93 968.91C1090.84 930.23 1124.93 883.69 1170.17 864.68C1180 860.09 1195.08 857.47 1207.53 863.37C1218.02 871.23 1220.64 881.72 1220.64 893.52C1220.64 898.77 1219.99 904.67 1219.33 909.91C1215.4 928.92 1207.53 945.97 1200.98 959.08C1204.26 961.04 1221.96 956.46 1226.54 953.18C1290.13 820.76 1362.9 723.08 1449.43 655.56L1450.09 654.9C1467.13 643.1 1488.11 628.68 1507.12 632.61C1513.02 633.27 1516.96 638.51 1518.27 644.41C1521.54 663.42 1513.02 679.81 1505.16 694.23C1498.6 696.2 1488.77 698.17 1488.77 698.17L1495.98 683.74C1501.22 673.26 1505.81 664.73 1505.16 652.93C1503.84 649.66 1501.88 649.66 1500.57 649.66C1487.46 652.28 1471.72 668.01 1455.99 683.09L1446.16 692.92C1381.91 757.17 1306.52 890.9 1294.72 919.09C1320.94 905.98 1407.48 820.1 1450.09 761.1C1458.61 760.44 1465.82 759.13 1465.82 759.13C1459.27 772.24 1412.72 832.56 1357.66 885C1332.09 909.26 1303.9 931.54 1279.64 948.59C1267.84 974.81 1256.04 1003.66 1250.8 1033.81C1250.14 1037.74 1248.83 1056.1 1261.94 1054.79C1278.99 1051.51 1309.8 1000.38 1309.8 1000.38C1338.64 955.14 1376.01 896.14 1426.49 866.64C1438.29 860.09 1454.68 856.81 1466.48 864.02C1469.1 865.99 1475.66 873.86 1477.62 877.79C1477.62 877.79 1482.87 869.27 1484.83 865.33L1532.03 865.33L1463.2 987.27C1463.2 987.27 1438.29 1025.29 1432.39 1044.3C1430.42 1051.51 1436.98 1054.13 1441.57 1050.86ZM1094.78 1046.27C1115.76 1069.87 1164.27 1001.69 1178.03 970.22C1166.89 964.98 1147.88 953.18 1139.36 934.82C1119.69 960.39 1090.84 1008.24 1091.5 1034.47C1091.5 1038.4 1092.16 1042.33 1094.78 1046.27ZM1186.56 955.8C1194.42 942.69 1200.32 927.61 1204.26 911.88L1204.26 911.22C1204.91 907.29 1205.57 902.7 1205.57 898.11C1205.57 890.9 1204.26 884.34 1198.36 880.41C1192.46 878.44 1183.93 879.76 1178.69 884.34C1165.58 892.21 1152.47 907.29 1156.4 926.3C1160.99 948.59 1185.24 956.46 1186.56 955.8ZM1379.29 1037.74C1402.89 1008.24 1421.24 975.47 1439.6 944C1448.78 927.61 1458.61 910.57 1468.44 894.83C1469.1 894.18 1469.76 891.56 1469.76 890.9C1469.76 888.28 1467.79 885.66 1466.48 884.34C1459.27 881.72 1452.71 885 1446.81 889.59C1411.41 917.78 1387.16 959.08 1366.18 993.82L1364.21 997.76C1357 1012.83 1349.13 1028.57 1349.79 1044.96C1349.79 1046.92 1351.76 1050.2 1353.72 1050.86C1361.59 1053.48 1368.14 1047.58 1374.7 1041.68L1379.29 1037.74Z" />
			</g>
			<g id="Layer">
				<g id="circle3">
					<path id="Layer" fill-rule="evenodd" class="shp1" d="M1492.7 1113.13C1478.93 1113.13 1467.79 1101.99 1467.79 1088.22C1467.79 1074.46 1478.93 1063.31 1492.7 1063.31C1506.47 1063.31 1517.61 1074.46 1517.61 1088.22C1518.27 1101.99 1507.12 1113.13 1492.7 1113.13ZM1492.7 1068.56C1481.56 1068.56 1473.03 1077.73 1473.03 1088.22C1473.03 1098.71 1482.21 1107.89 1492.7 1107.89C1503.19 1107.89 1512.37 1098.71 1512.37 1088.22C1512.37 1077.73 1503.84 1068.56 1492.7 1068.56Z" />
				</g>
				<g id="text3175">
					<path id="Layer" fill-rule="evenodd" class="shp1" d="M1488.77 1090.84L1488.77 1100.68L1482.21 1100.68L1482.21 1074.46L1492.7 1074.46C1495.98 1074.46 1498.6 1075.11 1500.57 1076.42C1501.88 1077.73 1503.19 1079.7 1503.19 1081.67C1503.19 1083.63 1502.53 1084.94 1501.88 1086.26C1501.22 1087.57 1499.91 1088.22 1497.94 1088.88C1498.6 1088.88 1499.91 1089.53 1500.57 1090.19C1501.22 1090.84 1501.88 1092.16 1502.53 1093.47L1506.47 1100.68L1499.26 1100.68L1495.98 1094.12C1495.32 1092.81 1494.67 1092.16 1494.01 1091.5C1493.36 1090.84 1492.7 1090.84 1491.39 1090.84L1488.77 1090.84ZM1491.39 1086.26C1492.7 1086.26 1494.01 1086.26 1494.67 1085.6C1495.32 1084.94 1495.32 1084.29 1495.32 1082.98C1495.32 1081.67 1495.32 1081.01 1494.67 1080.36C1494.01 1079.7 1493.36 1079.7 1491.39 1079.7L1488.77 1079.7L1488.77 1086.26L1491.39 1086.26Z" />
				</g>
			</g>
		</g>
	</g>
</svg>