<svg version="1.2" baseProfile="tiny-ps" xmlns="http://www.w3.org/2000/svg" viewBox="0 0 1509 1508" width="1509" height="1508">
	<title>target-svg</title>
	<style>
		tspan { white-space:pre }
		.shp0 { fill: #cc0000 } 
	</style>
	<g id="Layer">
		<path id="Layer" fill-rule="evenodd" class="shp0" d="M0.22 753.95C0.22 337.13 337.54 -0.07 754.5 -0.07C1171.46 -0.07 1508.78 337.13 1508.78 753.95C1508.78 1170.77 1171.46 1507.97 754.5 1507.97C337.54 1510.31 0.22 1170.77 0.22 753.95ZM754.5 1257.41C1033.26 1257.41 1258.14 1032.61 1258.14 753.95C1258.14 475.29 1033.26 250.49 754.5 250.49C475.74 250.49 250.86 475.29 250.86 753.95C250.86 1032.61 475.74 1257.41 754.5 1257.41ZM1005.15 753.95C1005.15 892.11 892.71 1004.51 754.5 1004.51C616.29 1004.51 503.85 892.11 503.85 753.95C503.85 615.79 616.29 503.39 754.5 503.39C892.71 503.39 1005.15 615.79 1005.15 753.95Z" />
	</g>
</svg>