<svg version="1.2" xmlns="http://www.w3.org/2000/svg" viewBox="0 0 1520 627" width="1520" height="627">
	<title>TER_BIG copy-svg</title>
	<style>
		.s0 { fill: #215299 } 
	</style>
	<path id="Layer" fill-rule="evenodd" class="s0" d="m177.9 115.8h-177.9v-115.8h485.2v115.8h-177.9v510.3h-129.4zm334.4-115.8h442.6v115.8h-313.2v133.9h287.2v107.3h-287.2v153.4h319v115.5h-448.4zm497.7 0h319c106.1 0 172.9 78.1 172.9 172.9 0 73.2-28 129.2-93.6 157.2v1.8c63.5 17.5 81.9 83.1 86 146.6 2.9 39.7 1.8 112.9 25.1 148.5h-130.6c-15.5-39.4-13.5-100.3-20.2-150.5-8.7-65.3-32.9-94.5-98.5-94.5h-129.8v245h-130.3zm130.3 283.7h143.2c58 0 89.8-25.9 89.8-89.8 0-60.6-31.8-86.6-89.8-86.6h-143.2z"/>
</svg>