<svg version="1.2" xmlns="http://www.w3.org/2000/svg" viewBox="0 0 1336 1334" width="1336" height="1334">
	<title>payccc-svg</title>
	<style>
		.s0 { fill: #00833e } 
	</style>
	<g id="Layer_2">
		<g id="Layer_2-2">
			<path id="Layer" class="s0" d="m85.2 0c-11.2 0-22.2 2.2-32.6 6.5-10.3 4.3-19.7 10.5-27.6 18.5-7.9 7.9-14.2 17.3-18.5 27.6-4.3 10.3-6.5 21.4-6.5 32.6v1163.4c0 11.2 2.2 22.3 6.5 32.6 4.3 10.4 10.6 19.8 18.5 27.7 7.9 7.9 17.3 14.2 27.6 18.4 10.4 4.3 21.4 6.5 32.6 6.5h179.7c11.2 0 22.3-2.2 32.6-6.5 10.3-4.2 19.7-10.5 27.7-18.4 7.9-7.9 14.2-17.3 18.4-27.7 4.3-10.3 6.5-21.4 6.5-32.6v-813.2c0-11.2 2.2-22.3 6.5-32.6 4.3-10.4 10.6-19.8 18.5-27.7 7.9-7.9 17.3-14.2 27.6-18.4 10.4-4.3 21.5-6.5 32.7-6.5h463.5c11.2 0 22.2 2.2 32.6 6.5 10.3 4.2 19.7 10.5 27.6 18.4 8 7.9 14.2 17.3 18.5 27.7 4.3 10.3 6.5 21.4 6.5 32.6v462c0 11.2-2.2 22.2-6.5 32.6-4.3 10.3-10.5 19.7-18.5 27.6-7.9 7.9-17.3 14.2-27.6 18.5-10.4 4.3-21.4 6.5-32.6 6.5h-266.8c-11.2 0-22.3 2.2-32.7 6.5-10.3 4.2-19.7 10.5-27.6 18.4-7.9 7.9-14.2 17.3-18.5 27.7-4.3 10.3-6.5 21.4-6.5 32.6v179.5c0 11.2 2.2 22.3 6.5 32.6 4.3 10.4 10.6 19.8 18.5 27.7 7.9 7.9 17.3 14.2 27.6 18.5 10.4 4.2 21.5 6.4 32.7 6.4h618c11.1 0 22.2-2.2 32.6-6.4 10.3-4.3 19.7-10.6 27.6-18.5 7.9-7.9 14.2-17.3 18.5-27.7 4.3-10.3 6.5-21.4 6.5-32.6v-1162.1c0-11.2-2.2-22.3-6.5-32.6-4.3-10.3-10.6-19.7-18.5-27.6-7.9-8-17.3-14.2-27.6-18.5-10.4-4.3-21.5-6.5-32.6-6.5z"/>
		</g>
	</g>
</svg>